<svg xmlns="http://www.w3.org/2000/svg" xmlns:svg="http://www.w3.org/2000/svg" id="svg4" aria-hidden="true" class="svg-inline--fa fa-user-lock fa-w-20" data-icon="user-lock" data-prefix="fas" focusable="false" role="img" version="1.1" viewBox="0 0 640 512"><metadata id="metadata10"/><path id="path2" fill="currentColor" d="M320 320c0-11.1 3.1-21.4 8.1-30.5-4.8-.5-9.5-1.5-14.5-1.5h-16.7c-22.2 10.2-46.9 16-72.9 16s-50.6-5.8-72.9-16h-16.7C60.2 288 0 348.2 0 422.4V464c0 26.5 21.5 48 48 48h280.9c-5.5-9.5-8.9-20.3-8.9-32V320zm-96-64c70.7 0 128-57.3 128-128S294.7 0 224 0 96 57.3 96 128s57.3 128 128 128zm384 32h-32v-48c0-44.2-35.8-80-80-80s-80 35.8-80 80v48h-32c-17.7 0-32 14.3-32 32v160c0 17.7 14.3 32 32 32h224c17.7 0 32-14.3 32-32V320c0-17.7-14.3-32-32-32zm-80 0h-64v-48c0-17.6 14.4-32 32-32s32 14.4 32 32v48z" style="fill:#6c737d;fill-opacity:1"/></svg>